External Loads File
version=1
nRows=39
nColumns=13
Range=5.000000e-03-10 seconds
endheader
time 	forceRightX 	forceRightY 	forceRightZ 	pointRightX 	pointRightY 	pointRightZ 	forceLeftX 	forceLeftY 	forceLeftZ 	pointLeftX 	pointLeftY 	pointLeftZ 		
7.505000 -68.531223 66.715871 -0.000000 0.365846 0.458315 -0.168847 45.894305 66.853593 -0.000000 0.159205 0.171615 -0.413681
7.510000 -84.461019 115.247371 -0.000000 0.370138 0.451710 -0.168065 35.238000 46.463457 -0.000000 0.153504 0.178284 -0.413588
7.515000 -103.818949 169.713739 -0.000000 0.374298 0.444040 -0.167356 27.901823 32.169326 -0.000000 0.147907 0.185697 -0.413660
7.520000 -125.459369 228.198795 -0.000000 0.378202 0.435793 -0.166945 23.737675 23.080326 -0.000000 0.142715 0.193621 -0.413527
7.525000 -148.131664 288.227457 -0.000000 0.381574 0.427227 -0.166558 22.455142 18.232552 -0.000000 0.137799 0.202035 -0.413412
7.530000 -169.980076 347.736855 -0.000000 0.384888 0.418249 -0.166407 23.619378 16.704182 -0.000000 0.132770 0.210808 -0.412784
7.535000 -190.560966 404.396210 -0.000000 0.387801 0.408804 -0.166233 26.617350 17.824774 -0.000000 0.128602 0.220007 -0.412543
7.540000 -208.154515 456.888198 -0.000000 0.390569 0.398854 -0.166235 30.903755 20.986742 -0.000000 0.124871 0.229597 -0.412374
7.545000 -222.304131 503.722668 -0.000000 0.393190 0.388623 -0.166262 35.953263 25.790950 -0.000000 0.121807 0.239387 -0.412286
7.550000 -232.647297 543.967205 -0.000000 0.395356 0.378344 -0.166329 41.398381 31.949277 -0.000000 0.119232 0.249434 -0.412202
7.555000 -238.407877 577.491725 -0.000000 0.397118 0.367575 -0.166324 47.117848 39.188276 -0.000000 0.117482 0.259647 -0.412766
7.560000 -240.530770 603.985756 -0.000000 0.398415 0.356989 -0.166317 53.062652 47.322368 -0.000000 0.116080 0.269950 -0.412862
7.565000 -238.485248 624.151694 -0.000000 0.399214 0.346228 -0.166181 59.384510 55.936852 -0.000000 0.115209 0.280469 -0.412938
7.570000 -233.752755 638.238391 -0.000000 0.399480 0.335522 -0.166045 66.100926 64.660483 -0.000000 0.114893 0.290921 -0.412937
7.575000 -226.479676 647.336264 -0.000000 0.399203 0.324817 -0.165813 73.266703 72.880034 -0.000000 0.115093 0.301400 -0.412991
7.580000 -216.041743 652.945742 -0.000000 0.398481 0.313934 -0.165444 80.896546 79.837021 -0.000000 0.115942 0.312095 -0.413058
7.585000 -203.984846 655.756319 -0.000000 0.397460 0.303205 -0.165112 88.573610 85.108891 -0.000000 0.117295 0.322696 -0.413062
7.590000 -189.989774 656.831320 -0.000000 0.395645 0.292774 -0.165001 95.936262 88.250117 -0.000000 0.119267 0.333386 -0.413156
7.595000 -173.466468 656.957946 -0.000000 0.393391 0.282075 -0.164636 102.613062 88.978745 -0.000000 0.121816 0.343838 -0.413243
7.600000 -155.417275 656.285085 -0.000000 0.390197 0.271907 -0.164876 108.048512 87.439438 -0.000000 0.125006 0.354255 -0.413234
7.605000 -135.858047 655.194876 -0.000000 0.386522 0.261959 -0.164790 111.876580 83.778396 -0.000000 0.128779 0.364414 -0.413314
7.610000 -114.496183 654.074946 -0.000000 0.382191 0.252202 -0.164582 113.865458 78.164072 -0.000000 0.133277 0.374278 -0.413441
7.615000 -91.385666 653.155255 -0.000000 0.377224 0.242633 -0.164353 113.888116 70.812275 -0.000000 0.138228 0.383991 -0.413390
7.620000 -67.784082 652.472136 -0.000000 0.371723 0.233539 -0.164045 111.838774 62.088085 -0.000000 0.143783 0.393322 -0.413824
7.625000 -43.202372 652.273099 -0.000000 0.365658 0.224476 -0.163650 107.886208 52.005696 -0.000000 0.149775 0.402354 -0.413154
7.630000 -19.679470 652.508220 -0.000000 0.359060 0.215831 -0.163456 102.021296 40.966420 -0.000000 0.155771 0.410885 -0.412496
7.635000 7.963929 653.179172 -0.000000 0.351905 0.207854 -0.163319 94.660349 28.243283 -0.000000 0.164280 0.419617 -0.413214
7.640000 32.696886 653.926675 -0.000000 0.344273 0.200111 -0.163192 85.473654 15.038487 -0.000000 0.171927 0.427411 -0.413460
7.645000 56.363950 654.579613 -0.000000 0.336324 0.192926 -0.163198 74.730831 1.225713 -0.000000 0.179961 0.434652 -0.412906
7.650000 79.431446 654.718369 -0.000000 0.327977 0.186333 -0.163184 62.648805 -13.005330 -0.000000 0.188514 0.441376 -0.412902
7.655000 101.775252 653.777823 -0.000000 0.319311 0.180106 -0.163209 49.516851 -27.321611 -0.000000 0.197388 0.447761 -0.412932
7.660000 122.354865 651.209039 -0.000000 0.310412 0.174496 -0.163193 35.790178 -41.349411 -0.000000 0.206297 0.453607 -0.413079
7.665000 142.593839 645.947685 -0.000000 0.301105 0.169642 -0.163300 21.849557 -54.953072 -0.000000 0.215701 0.458919 -0.413082
7.670000 162.001570 637.213852 -0.000000 0.291623 0.165076 -0.162997 8.110397 -67.871309 -0.000000 0.225390 0.463877 -0.413032
7.675000 179.109914 624.612169 -0.000000 0.282048 0.161265 -0.162972 -4.900870 -79.823212 -0.000000 0.234959 0.468229 -0.412934
7.680000 194.762366 607.295857 -0.000000 0.272288 0.158038 -0.162628 -16.902665 -90.503847 -0.000000 0.244718 0.471945 -0.412807
7.685000 208.505308 584.948289 -0.000000 0.262240 0.155554 -0.162525 -27.532427 -99.523717 -0.000000 0.254479 0.474994 -0.412714
7.690000 219.016753 557.956010 -0.000000 0.252306 0.154052 -0.162644 -36.343880 -106.487836 -0.000000 0.264070 0.477423 -0.412610
7.695000 227.098806 526.387230 -0.000000 0.242410 0.153017 -0.162599 -43.327973 -110.870055 -0.000000 0.274023 0.479124 -0.412620
